# xmcd
#
# Track frame offsets: 
#        150
#        16644
#        28197
#        38831
#        54019
#        69770
#        80264
#        90703
#        102368
#        116502
#        133703
#        155211
#        169673
#        182209
#
# Disc length: 2730 seconds
#
# Revision: 0
# Processed by: cddbd v1.5.2PL0 Copyright (c) Steve Scherf et al.
# Submitted via: ExactAudioCopy v0.99pb1
#
DISCID=a80aa80e
DTITLE=Lonzie Thomas - The George Mtchell Collection
DYEAR=2006
DGENRE=Blues
TTITLE0=Dragaround #1
TTITLE1=Red Cross Store
TTITLE2=Rabbit On A Log
TTITLE3=Dear Old Mother
TTITLE4=Tin Top Alley
TTITLE5=Raise A Ruckus Tonight #1
TTITLE6=Raise A Ruckus Tonight #2
TTITLE7=Struttin' That Thing
TTITLE8=Sitting Here Studying As The Time Roll On
TTITLE9=Hard Pill To Swallow
TTITLE10=Barnyard
TTITLE11=Dragaround #2
TTITLE12=My Three Women
TTITLE13=John Henry
EXTD=
EXTT0=
EXTT1=
EXTT2=
EXTT3=
EXTT4=
EXTT5=
EXTT6=
EXTT7=
EXTT8=
EXTT9=
EXTT10=
EXTT11=
EXTT12=
EXTT13=
PLAYORDER=
